<svg width="120" height="143" viewBox="0 0 120 143" fill="none" xmlns="http://www.w3.org/2000/svg">
    <path d="M0 119.915L120 142.185V0H0V119.915Z" fill="#FFCE34"/>
    <path d="M35.1646 108.564H31.2602V104.13H35.2028C37.2069 104.13 38.3783 104.891 38.3783 106.257C38.3783 107.623 37.1359 108.564 35.1646 108.564ZM31.2602 98.7474H34.9707C36.7291 98.7474 37.794 99.5463 37.794 100.806C37.794 102.205 36.7018 103.023 34.7742 103.023H31.2602V98.7474ZM36.8875 103.448C37.5085 103.301 38.0591 102.943 38.4447 102.435C38.8302 101.927 39.0268 101.301 39.0008 100.664C39.0008 98.8183 37.5073 97.6294 35.0936 97.6294H30.0015V109.693H35.2219C36.5516 109.693 37.6356 109.39 38.4356 108.787C38.8149 108.519 39.1231 108.162 39.3333 107.747C39.5436 107.333 39.6497 106.874 39.6424 106.41C39.6397 104.839 38.6813 103.721 36.8875 103.437V103.448Z" fill="#0D0116"/>
    <path d="M48.4588 107.32C48.1451 107.778 47.7275 108.154 47.2402 108.42C46.7528 108.685 46.2095 108.832 45.6547 108.847C44.1475 108.847 43.1509 107.855 43.1509 106.151V101.485H41.9441V106.222C41.9441 107.356 42.2635 108.26 42.9025 108.935C43.2313 109.271 43.6272 109.535 44.0646 109.709C44.502 109.884 44.9711 109.964 45.4417 109.946C45.9994 109.957 46.5535 109.854 47.07 109.644C47.5864 109.433 48.0544 109.12 48.4451 108.722V109.679H49.6547V101.485H48.4451V107.32" fill="#0D0116"/>
    <path d="M59.1317 107.339C58.8288 107.805 58.4122 108.186 57.9212 108.446C57.4301 108.707 56.8808 108.838 56.3249 108.828C55.9016 108.835 55.4816 108.754 55.0917 108.589C54.7019 108.424 54.3509 108.179 54.0614 107.871C53.4807 107.247 53.1579 106.426 53.1579 105.574C53.1579 104.722 53.4807 103.901 54.0614 103.276C54.3519 102.967 54.7042 102.722 55.0955 102.557C55.4868 102.392 55.9084 102.311 56.3331 102.319C56.8918 102.305 57.4446 102.437 57.9369 102.701C58.4291 102.966 58.8438 103.354 59.1399 103.827V107.339M59.1399 102.39C58.7435 102.018 58.2776 101.728 57.7688 101.536C57.26 101.345 56.7183 101.255 56.1747 101.272C55.6144 101.266 55.0588 101.374 54.5422 101.591C54.0256 101.808 53.559 102.128 53.1713 102.532C52.3733 103.347 51.9265 104.442 51.9265 105.582C51.9265 106.722 52.3733 107.817 53.1713 108.632C53.559 109.036 54.0256 109.356 54.5422 109.573C55.0588 109.789 55.6144 109.898 56.1747 109.892C56.7181 109.91 57.2597 109.82 57.7685 109.629C58.2774 109.438 58.7434 109.148 59.1399 108.776V109.679H60.3631V97.0867H59.1399V102.39Z" fill="#0D0116"/>
    <path d="M70.0206 107.356C69.7193 107.823 69.3031 108.206 68.8118 108.467C68.3204 108.728 67.7702 108.859 67.2137 108.847C66.7891 108.855 66.3675 108.774 65.9762 108.61C65.5848 108.445 65.2325 108.2 64.9421 107.89C64.3614 107.266 64.0386 106.445 64.0386 105.593C64.0386 104.741 64.3614 103.92 64.9421 103.296C65.2325 102.986 65.5848 102.741 65.9762 102.576C66.3675 102.411 66.7891 102.33 67.2137 102.338C67.77 102.326 68.3201 102.457 68.8115 102.717C69.3029 102.978 69.7192 103.36 70.0206 103.827V107.356ZM70.0206 102.409C69.2022 101.657 68.1247 101.251 67.0129 101.273C65.9012 101.296 64.8414 101.747 64.0547 102.532C63.2581 103.352 62.8125 104.449 62.8125 105.591C62.8125 106.734 63.2581 107.831 64.0547 108.651C64.8413 109.436 65.9009 109.887 67.0124 109.91C68.1239 109.933 69.2016 109.527 70.0206 108.776V109.679H71.2438V101.485H70.0206V102.409Z" fill="#0D0116"/>
    <path d="M80.4288 107.89C80.1416 108.199 79.7926 108.444 79.4045 108.608C79.0164 108.773 78.5979 108.855 78.1762 108.847C77.6151 108.856 77.0614 108.72 76.568 108.453C76.0746 108.186 75.6581 107.797 75.3584 107.323V103.863C75.6572 103.387 76.0743 102.997 76.569 102.729C77.0638 102.462 77.6193 102.328 78.1817 102.339C78.6034 102.331 79.0219 102.413 79.41 102.578C79.7981 102.742 80.1471 102.987 80.4342 103.296C81.0265 103.914 81.3571 104.737 81.3571 105.593C81.3571 106.449 81.0265 107.272 80.4342 107.89M78.3346 101.272C77.7868 101.259 77.2419 101.354 76.7311 101.552C76.2203 101.75 75.7538 102.047 75.3584 102.426V101.485H74.1516V114.08H75.3584V108.757C75.7545 109.137 76.2219 109.434 76.7336 109.632C77.2454 109.83 77.7914 109.925 78.34 109.911C78.9003 109.917 79.4559 109.809 79.9725 109.592C80.4891 109.375 80.9557 109.055 81.3434 108.651C82.1401 107.831 82.5856 106.734 82.5856 105.592C82.5856 104.449 82.1401 103.352 81.3434 102.532C80.9551 102.128 80.4876 101.807 79.97 101.59C79.4524 101.374 78.8957 101.265 78.3346 101.272Z" fill="#0D0116"/>
    <path d="M85.682 105.123C85.7525 104.366 86.0846 103.657 86.6212 103.118C86.8932 102.854 87.2161 102.646 87.5703 102.509C87.9245 102.372 88.3029 102.307 88.6827 102.32C90.2608 102.32 91.3448 103.438 91.4868 105.123H85.682ZM88.7154 101.272C88.1444 101.255 87.576 101.357 87.0473 101.573C86.5186 101.79 86.0413 102.114 85.6465 102.527C84.8806 103.37 84.4563 104.467 84.4563 105.605C84.4563 106.744 84.8806 107.841 85.6465 108.684C86.0425 109.094 86.5203 109.416 87.049 109.63C87.5777 109.844 88.1454 109.944 88.7154 109.925C90.5093 109.925 91.9646 109.019 92.4451 107.618H91.1318C90.7223 108.452 89.9414 108.877 88.7537 108.877C87.0308 108.877 85.8759 107.708 85.682 106.077H92.6226V106.042L92.6936 106.077C92.7095 105.906 92.715 105.734 92.71 105.562C92.7389 104.432 92.3323 103.334 91.5742 102.494C91.2128 102.098 90.7706 101.784 90.2775 101.574C89.7843 101.363 89.2517 101.26 88.7154 101.272Z" fill="#0D0116"/>
    <path d="M99.4294 105.139L97.7912 104.866C96.699 104.67 96.1775 104.28 96.1775 103.59C96.1775 102.791 96.9966 102.227 98.2717 102.227C99.6724 102.227 100.543 102.794 100.685 103.863H101.821C101.806 103.47 101.695 103.087 101.497 102.747C101.299 102.407 101.02 102.121 100.685 101.913C99.961 101.467 99.1228 101.238 98.2717 101.256C96.284 101.256 94.9707 102.213 94.9707 103.686C94.9707 104.894 95.7898 105.619 97.4007 105.886L99.2847 106.205C100.153 106.347 100.702 106.791 100.702 107.5C100.702 108.37 99.798 108.954 98.4492 108.954C96.9038 108.954 96.0164 108.351 95.7516 107.162H94.6157C94.8451 108.989 96.2539 109.965 98.4382 109.965C100.481 109.965 101.884 108.989 101.884 107.43C101.884 106.186 101.065 105.442 99.4266 105.158" fill="#0D0116"/>
    <path d="M109.805 108.616C109.361 108.747 108.902 108.819 108.44 108.828C107.162 108.828 106.594 108.209 106.594 106.734V102.527H109.701V101.48H106.591V98.4529H105.393V101.485H103.208V102.527H105.393V106.729C105.393 108.877 106.332 109.941 108.232 109.941C108.835 109.936 109.433 109.844 110.01 109.668L109.813 108.621" fill="#0D0116"/>
    <path d="M48.3823 74.9481C46.0833 74.9481 44.5406 75.5753 42.9051 77.0859C42.3145 76.3914 41.5748 75.8385 40.7411 75.4685C39.9073 75.0984 39.0008 74.9205 38.0887 74.9481C36.718 74.9086 35.3858 75.4045 34.3754 76.3306V75.4198H30.0068V90.4852H34.3754V80.6089C35.2246 79.4773 36.1065 78.9101 37.0512 78.9101C39.1591 78.9101 40.2922 80.1999 40.2922 82.5912V90.4852H44.6608V82.2122C44.6541 81.6647 44.6122 81.1182 44.5352 80.5762C45.3242 79.4854 46.269 78.9101 47.3693 78.9101C49.4143 78.9101 50.5802 80.1999 50.5802 82.5912V90.4852H54.9488V82.2122C54.9488 80.0308 54.3208 78.3129 53.0621 76.9605C52.4705 76.3086 51.7454 75.7916 50.9361 75.4444C50.1267 75.0971 49.252 74.9279 48.3713 74.9481" fill="#0D0116"/>
    <path d="M86.5064 85.8935C86.157 86.2793 85.7289 86.5858 85.2508 86.7923C84.7727 86.9988 84.2558 87.1005 83.7351 87.0905C83.0469 87.1127 82.3638 86.9665 81.7452 86.6647C81.1265 86.3629 80.5911 85.9147 80.1856 85.359V80.5463C80.5847 79.9819 81.1181 79.5255 81.7377 79.218C82.3572 78.9106 83.0436 78.7617 83.7351 78.7848C84.2614 78.776 84.7832 78.8842 85.2625 79.1016C85.7418 79.319 86.1667 79.6402 86.5064 80.0418C87.2406 80.8396 87.6471 81.8841 87.645 82.9677C87.6619 84.0539 87.2533 85.1037 86.5064 85.8935ZM84.4586 75.1064C82.9463 75.0821 81.4597 75.498 80.1801 76.3034V75.4227H75.8115V95.9089H80.1801V89.6046C81.4602 90.4088 82.9465 90.8247 84.4586 90.8017C85.4502 90.817 86.4339 90.6231 87.3453 90.2327C88.2566 89.8422 89.0752 89.2639 89.7474 88.5357C91.1628 87.0268 91.9505 85.0366 91.9505 82.969C91.9505 80.9014 91.1628 78.9112 89.7474 77.4023C89.0793 76.6667 88.2623 76.0813 87.3505 75.685C86.4387 75.2887 85.4529 75.0905 84.4586 75.1036V75.1064Z" fill="#0D0116"/>
    <path d="M105.625 85.3481C105.219 85.9033 104.683 86.3511 104.065 86.6528C103.446 86.9546 102.763 87.1011 102.075 87.0796C101.549 87.0956 101.026 86.9978 100.542 86.7931C100.057 86.5884 99.6229 86.2815 99.2683 85.8935C98.5573 85.0783 98.1656 84.0337 98.1656 82.9527C98.1656 81.8716 98.5573 80.827 99.2683 80.0118C99.6155 79.6143 100.047 79.2984 100.53 79.0867C101.014 78.8751 101.539 78.7729 102.067 78.7875C102.758 78.7644 103.445 78.9133 104.064 79.2207C104.684 79.5282 105.217 79.9847 105.616 80.549V85.3481M105.616 75.4118V76.2925C104.336 75.4875 102.848 75.0716 101.335 75.0955C100.337 75.0821 99.3466 75.2797 98.4299 75.6754C97.5133 76.0711 96.6908 76.6559 96.0164 77.3914C95.2924 78.1234 94.724 78.9939 94.3454 79.9507C93.9668 80.9076 93.7857 81.931 93.813 82.9595C93.7918 83.9868 93.9757 85.008 94.354 85.9636C94.7323 86.9191 95.2974 87.7898 96.0164 88.5248C96.6966 89.2539 97.5218 89.833 98.4391 90.2251C99.3564 90.6171 100.346 90.8135 101.343 90.8017C102.856 90.8252 104.343 90.4104 105.625 89.6073V90.4881H109.993V75.4199L105.616 75.4118Z" fill="#0D0116"/>
    <path d="M73.0293 75.4199H68.6553V79.5373H73.0293V75.4199Z" fill="#0D0116"/>
    <path d="M62.1079 75.4199H57.7339V79.5373H62.1079V75.4199Z" fill="#0D0116"/>
    <path d="M68.6553 81.3451V85.1053C67.6159 86.3578 66.5138 86.9841 65.3488 86.9841C63.3038 86.9841 62.1079 85.697 62.1079 83.3056V81.3369H57.7393V83.7119C57.7393 85.8797 58.3372 87.6412 59.5331 88.9637C60.729 90.2862 62.3672 90.9461 64.3495 90.9461C65.9234 90.9526 67.4494 90.4063 68.6608 89.4027V90.4743H73.0294V81.3451H68.6608" fill="#0D0116"/>
</svg>
